<?xml version="1.0" encoding="UTF-8"?>
<svg width="192px" height="87px" viewBox="0 0 192 87" version="1.1" xmlns="http://www.w3.org/2000/svg" xmlns:xlink="http://www.w3.org/1999/xlink">
    <!-- Generator: Sketch 51.3 (57544) - http://www.bohemiancoding.com/sketch -->
    <title>badge</title>
    <desc>Created with Sketch.</desc>
    <defs></defs>
    <g id="Page-1" stroke="none" stroke-width="1" fill="none" fill-rule="evenodd">
        <g id="Desktop-HD" transform="translate(-943.000000, -169.000000)">
            <g id="badge" transform="translate(1039.000000, 212.394531) rotate(-9.000000) translate(-1039.000000, -212.394531) translate(943.000000, 171.394531)">
                <path d="M49.2017117,37.7168012 L61.8611352,37.7168012 C65.4590946,37.7168012 68.0464772,37.2693439 69.6233606,36.3744159 C71.200244,35.4794879 71.9886739,34.137116 71.9886739,32.34726 C71.9886739,31.1540227 71.7221624,30.2120074 71.1891314,29.5211857 C70.6561004,28.8303641 69.9231937,28.2965554 68.9903894,27.9197436 C68.0575851,27.5429319 66.9804344,27.2995779 65.758905,27.1896744 C64.5373756,27.079771 63.238132,27.0248201 61.8611352,27.0248201 L49.2017117,27.0248201 L49.2017117,37.7168012 Z M42.872,23.2567211 L60.128793,23.2567211 C61.1504358,23.2567211 62.2497958,23.2645712 63.426906,23.2802717 C64.6040161,23.2959722 65.770004,23.3430729 66.9249045,23.4215754 C68.0798051,23.5000778 69.1569558,23.6178298 70.1563889,23.7748347 C71.1558221,23.9318396 72.0108799,24.1673434 72.7215879,24.4813532 C74.2762617,25.1407739 75.5977146,26.0513887 76.6859863,27.2132251 C77.774258,28.3750614 78.3183856,29.8037847 78.3183856,31.4994378 C78.3183856,33.2892938 77.7076301,34.8357689 76.4861007,36.1389097 C75.2645712,37.4420505 73.5211418,38.4076162 71.2557599,39.0356359 L71.2557599,39.1298384 C74.1874305,39.5694521 76.4305691,40.5114675 77.9852429,41.9559127 C79.5399167,43.4003578 80.317242,45.1587865 80.317242,47.2312513 C80.317242,48.4558897 80.0063119,49.6491091 79.3844423,50.8109454 C78.7625728,51.9727818 77.8408872,53.0011486 76.6193578,53.8960766 C75.3978283,54.7910046 73.8875964,55.5132163 72.0886167,56.0627335 C70.289637,56.6122507 68.2130682,56.8870052 65.8588478,56.8870052 L42.872,56.8870052 L42.872,23.2567211 Z M49.2017117,53.1189061 L65.0593053,53.1189061 C67.8577182,53.1189061 70.0453335,52.5850974 71.6222169,51.517464 C73.1991004,50.4498306 73.9875302,48.9740066 73.9875302,47.0899476 C73.9875302,45.9909132 73.6988094,45.0802984 73.1213592,44.3580758 C72.5439089,43.6358532 71.7776883,43.0627939 70.8226744,42.6388806 C69.8676605,42.2149673 68.7683005,41.9166625 67.5245614,41.7439571 C66.2808224,41.5712517 64.9926834,41.4849003 63.6601059,41.4849003 L49.2017117,41.4849003 L49.2017117,53.1189061 Z M91.7999803,40.0718631 C91.7999803,41.7675162 92.1109104,43.4395934 92.73278,45.088145 C93.3546495,46.7366966 94.3318584,48.2203707 95.6644359,49.539212 C96.9970135,50.8580533 98.707129,51.9178205 100.794834,52.7185456 C102.882539,53.5192707 105.369979,53.9196272 108.257231,53.9196272 C111.144482,53.9196272 113.631923,53.5192707 115.719628,52.7185456 C117.807333,51.9178205 119.517448,50.8580533 120.850026,49.539212 C122.182603,48.2203707 123.159812,46.7366966 123.781682,45.088145 C124.403551,43.4395934 124.714481,41.7675162 124.714481,40.0718631 C124.714481,38.3762101 124.403551,36.7041328 123.781682,35.0555812 C123.159812,33.4070297 122.182603,31.9233555 120.850026,30.6045142 C119.517448,29.285673 117.807333,28.2259057 115.719628,27.4251806 C113.631923,26.6244556 111.144482,26.2240991 108.257231,26.2240991 C105.369979,26.2240991 102.882539,26.6244556 100.794834,27.4251806 C98.707129,28.2259057 96.9970135,29.285673 95.6644359,30.6045142 C94.3318584,31.9233555 93.3546495,33.4070297 92.73278,35.0555812 C92.1109104,36.7041328 91.7999803,38.3762101 91.7999803,40.0718631 Z M85.4702686,40.0718631 C85.4702686,37.7795914 85.9477684,35.5737055 86.9027823,33.4541391 C87.8577962,31.3345728 89.2902956,29.4583923 91.2003234,27.8255412 C93.1103513,26.1926901 95.4867456,24.8895688 98.3295777,23.9161384 C101.17241,22.9427079 104.481594,22.456 108.257231,22.456 C112.032867,22.456 115.342052,22.9427079 118.184884,23.9161384 C121.027716,24.8895688 123.40411,26.1926901 125.314138,27.8255412 C127.224166,29.4583923 128.656665,31.3345728 129.611679,33.4541391 C130.566693,35.5737055 131.044193,37.7795914 131.044193,40.0718631 C131.044193,42.3641348 130.566693,44.5700208 129.611679,46.6895871 C128.656665,48.8091534 127.224166,50.685334 125.314138,52.3181851 C123.40411,53.9510362 121.027716,55.2463073 118.184884,56.2040372 C115.342052,57.1617672 112.032867,57.640625 108.257231,57.640625 C104.481594,57.640625 101.17241,57.1617672 98.3295777,56.2040372 C95.4867456,55.2463073 93.1103513,53.9510362 91.2003234,52.3181851 C89.2902956,50.685334 87.8577962,48.8091534 86.9027823,46.6895871 C85.9477684,44.5700208 85.4702686,42.3641348 85.4702686,40.0718631 Z M138.662476,23.2567211 L144.992188,23.2567211 L144.992188,56.8870052 L138.662476,56.8870052 L138.662476,23.2567211 Z" id="BOI" fill="#FFFFFF"></path>
                <ellipse id="Oval-3" stroke="#FFFFFF" stroke-width="2" fill-rule="nonzero" cx="96" cy="41" rx="95" ry="40"></ellipse>
            </g>
        </g>
    </g>
</svg>